<?xml version="1.0" encoding="UTF-8"?>
<svg width="154px" height="48px" viewBox="0 0 154 48" version="1.1" xmlns="http://www.w3.org/2000/svg" xmlns:xlink="http://www.w3.org/1999/xlink">
    <!-- Generator: Sketch 52.6 (67491) - http://www.bohemiancoding.com/sketch -->
    <title>btn_googleplay</title>
    <desc>Created with Sketch.</desc>
    <defs>
        <linearGradient x1="91.233185%" y1="4.94615078%" x2="-37.8081802%" y2="71.8787395%" id="linearGradient-1">
            <stop stop-color="#00A0FF" offset="0%"></stop>
            <stop stop-color="#00A1FF" offset="1%"></stop>
            <stop stop-color="#00BEFF" offset="26%"></stop>
            <stop stop-color="#00D2FF" offset="51%"></stop>
            <stop stop-color="#00DFFF" offset="76%"></stop>
            <stop stop-color="#00E3FF" offset="100%"></stop>
        </linearGradient>
        <linearGradient x1="107.185039%" y1="50%" x2="-130.905512%" y2="50%" id="linearGradient-2">
            <stop stop-color="#FFE000" offset="0%"></stop>
            <stop stop-color="#FFBD00" offset="41%"></stop>
            <stop stop-color="#FFA500" offset="78%"></stop>
            <stop stop-color="#FF9C00" offset="100%"></stop>
        </linearGradient>
        <linearGradient x1="86.2792091%" y1="17.8736089%" x2="-50.0898742%" y2="194.666915%" id="linearGradient-3">
            <stop stop-color="#FF3A44" offset="0%"></stop>
            <stop stop-color="#C31162" offset="100%"></stop>
        </linearGradient>
        <linearGradient x1="-18.7537448%" y1="-54.0160793%" x2="42.1210306%" y2="24.9346455%" id="linearGradient-4">
            <stop stop-color="#32A071" offset="0%"></stop>
            <stop stop-color="#2DA771" offset="7%"></stop>
            <stop stop-color="#15CF74" offset="48%"></stop>
            <stop stop-color="#06E775" offset="80%"></stop>
            <stop stop-color="#00F076" offset="100%"></stop>
        </linearGradient>
    </defs>
    <g id="Page-1" stroke="none" stroke-width="1" fill="none" fill-rule="evenodd">
        <g id="Artboard" transform="translate(-276.000000, -541.000000)">
            <g id="Group-4" transform="translate(276.000000, 541.000000)">
                <g id="Group-2-Copy" fill="#000000">
                    <rect id="Rectangle" x="0" y="0" width="154" height="48" rx="8"></rect>
                </g>
                <g id="Group-3" transform="translate(12.810000, 8.295000)">
                    <path d="M1.76565,0.6399 C1.36661189,1.09803342 1.15875274,1.6919167 1.185,2.2989 L1.185,28.5111 C1.14892108,29.113323 1.34386697,29.7066366 1.7301,30.1701 L1.8249,30.2649 L16.59,15.58275 L16.59,15.22725 L1.86045,0.55695 L1.76565,0.6399 Z" id="Path" fill="url(#linearGradient-1)"></path>
                    <path d="M21.43665,20.4768 L16.59,15.58275 L16.59,15.22725 L21.48405,10.3332 L21.5907,10.4043 L27.38535,13.6986 C29.04435,14.63475 29.04435,16.17525 27.38535,17.12325 L21.5907,20.41755 L21.43665,20.4768 Z" id="Path" fill="url(#linearGradient-2)"></path>
                    <path d="M21.5433,20.41755 L16.59,15.405 L1.76565,30.1701 C2.46222545,30.7822892 3.49429219,30.8170222 4.23045,30.25305 L21.5433,20.41755 Z" id="Path" fill="url(#linearGradient-3)"></path>
                    <path d="M21.5433,10.4043 L4.23045,0.5688 C3.500217,-0.00804658909 2.46141681,0.0219188012 1.76565,0.6399 L16.59,15.405 L21.5433,10.4043 Z" id="Path" fill="url(#linearGradient-4)"></path>
                    <path d="M21.43665,20.29905 L4.23045,30.0753 C3.52911274,30.6046149 2.56178726,30.6046149 1.86045,30.0753 L1.76565,30.15825 L1.86045,30.25305 C2.56178726,30.7823649 3.52911274,30.7823649 4.23045,30.25305 L21.5433,20.41755 L21.43665,20.29905 Z" id="Path" fill="#000000" opacity="0.2"></path>
                    <path d="M1.76565,30.0042 C1.36372243,29.5430565 1.15566629,28.9443644 1.185,28.33335 L1.185,28.5111 C1.14892108,29.113323 1.34386697,29.7066366 1.7301,30.1701 L1.8249,30.08715 L1.76565,30.0042 Z M27.33795,16.9455 L21.41295,20.29905 L21.5196,20.41755 L27.31425,17.1114 C27.9862281,16.7957316 28.4381851,16.1449136 28.49925,15.405 C28.3693648,16.0696371 27.9411537,16.6376722 27.33795,16.9455 Z" id="Shape" fill="#000000" fill-rule="nonzero" opacity="0.12"></path>
                    <g id="Group" transform="translate(1.185000, 0.000000)" fill="#FFFFFF">
                        <path d="M3.04545,0.7347 L26.15295,13.8645 C26.7652466,14.1667241 27.2028949,14.735667 27.33795,15.405 C27.2768851,14.6650864 26.8249281,14.0142684 26.15295,13.6986 L3.04545,0.5688 C1.3983,-0.3792 0,0.4029 0,2.2989 L0,2.47665 C0,0.58065 1.3983,-0.20145 3.04545,0.7347 Z" id="Path" opacity="0.25"></path>
                        <path d="M64.9143,5.8302 C62.4813064,5.8432895 60.5189652,7.82507101 60.52986,10.2580755 C60.5407547,12.6910799 62.5207652,14.655208 64.9537785,14.646508 C67.3867918,14.6378081 69.3527052,12.6595701 69.3462,10.22655 C69.3625663,9.04942284 68.8997181,7.91621351 68.0639377,7.08713727 C67.2281573,6.25806103 66.0912572,5.80435419 64.9143,5.8302 Z M64.9143,12.9402 C64.2278139,12.9219473 63.5777664,12.627339 63.1115089,12.1231563 C62.6452514,11.6189735 62.4022724,10.9479168 62.43765,10.2621 C62.3735058,9.33422223 62.8321546,8.44802217 63.6267267,7.96456917 C64.4212988,7.48111618 65.4191512,7.48111618 66.2137233,7.96456917 C67.0082954,8.44802217 67.4669442,9.33422223 67.4028,10.2621 C67.4283612,10.9439134 67.1793797,11.6074903 66.7116216,12.1042048 C66.2438636,12.6009193 65.5964188,12.8892617 64.9143,12.90465 L64.9143,12.9402 Z M55.2684,5.8302 C52.8338313,5.83675334 50.8655344,7.81567061 50.8720818,10.2502393 C50.8786293,12.684808 52.8575418,14.6531097 55.2921105,14.6465681 C57.7266792,14.6400265 59.6949857,12.6611187 59.68845,10.22655 C59.7047209,9.05152182 59.2434842,7.92018626 58.4103035,7.09147294 C57.5771227,6.26275962 56.4433237,5.80761198 55.2684,5.8302 Z M55.2684,12.9402 C54.5809329,12.9218457 53.9297714,12.6276229 53.4616459,12.1238308 C52.9935205,11.6200387 52.7478165,10.9490633 52.7799,10.2621 C52.7799,8.8877394 53.8940394,7.7736 55.2684,7.7736 C56.6427606,7.7736 57.7569,8.8877394 57.7569,10.2621 C57.7824612,10.9439134 57.5334797,11.6074903 57.0657216,12.1042048 C56.5979636,12.6009193 55.9505188,12.8892617 55.2684,12.90465 L55.2684,12.9402 Z M43.845,7.1811 L43.845,9.04155 L48.31245,9.04155 C48.2524797,9.92453444 47.8929658,10.7606131 47.29335,11.41155 C46.387426,12.3304019 45.1339949,12.8214368 43.845,12.76245 C41.1938158,12.6329698 39.1107804,10.4457191 39.1107804,7.791375 C39.1107804,5.13703086 41.1938158,2.94978018 43.845,2.8203 C45.0998293,2.80354689 46.3100916,3.2850949 47.2104,4.15935 L48.5376,2.83215 C47.2884771,1.60157243 45.5982829,0.922933851 43.845,0.948 C40.0465982,0.947646023 36.9527553,3.99925215 36.9009,7.7973 C36.9591674,11.5907068 40.0511457,14.6351975 43.845,14.63475 C45.6263176,14.699247 47.3505812,14.0009203 48.585,12.71505 C49.6790997,11.5096087 50.2539001,9.92145659 50.18475,8.295 C50.1879773,7.8979837 50.1562549,7.50145372 50.08995,7.11 L43.845,7.1811 Z M90.771,8.6268 C90.2282295,6.9947353 88.7220175,5.87691759 87.0027,5.8302 C85.859441,5.8351896 84.7680423,6.30789609 83.9823235,7.13838517 C83.1966047,7.96887425 82.7850421,9.08476792 82.84335,10.22655 C82.8175003,11.3972215 83.2687086,12.5280958 84.0933412,13.3594327 C84.9179738,14.1907696 86.0451576,14.6511199 87.216,14.63475 C88.6920261,14.6448009 90.0735009,13.9094998 90.8895,12.6795 L89.38455,11.6841 C88.9193748,12.4318979 88.0965883,12.881508 87.216,12.8691 C86.2976106,12.9026436 85.4519333,12.3717462 85.083,11.53005 L91.008,9.08895 L90.771,8.6268 Z M84.76305,10.0962 C84.7065139,9.43352757 84.9310205,8.77759368 85.3817563,8.28854532 C85.8324921,7.79949695 86.4679746,7.52234267 87.13305,7.52475 C87.8151737,7.48655037 88.4558989,7.85334235 88.76835,8.4609 L84.76305,10.0962 Z M80.02305,14.37405 L81.96645,14.37405 L81.96645,1.422 L79.92825,1.422 L80.02305,14.37405 Z M76.8591,6.81375 L76.788,6.81375 C76.181415,6.15284544 75.3143012,5.79299319 74.418,5.8302 C72.0753656,5.95178253 70.2382777,7.88668764 70.2382777,10.232475 C70.2382777,12.5782624 72.0753656,14.5131675 74.418,14.63475 C75.3170829,14.6739405 76.1865339,14.3087711 76.788,13.63935 L76.8591,13.63935 L76.8591,14.22 C76.9608524,14.893387 76.7523408,15.5766443 76.2919427,16.0784782 C75.8315446,16.5803121 75.1687414,16.846788 74.4891,16.8033 C73.4956065,16.7979045 72.6109281,16.1734256 72.27315,15.2391 L70.59045,15.93825 C71.2321563,17.5247335 72.7778003,18.5582948 74.4891,18.54525 C76.7643,18.54525 78.67215,17.2062 78.67215,13.9593 L78.67215,6.0909 L76.7643,6.0909 L76.8591,6.81375 Z M74.5365,12.90465 C73.8573995,12.8831835 73.2153167,12.5901005 72.7541888,12.0911022 C72.2930609,11.5921039 72.0514613,10.9289315 72.08355,10.25025 C72.0481646,9.56725002 72.2875856,8.89849477 72.7484124,8.39314365 C73.2092392,7.88779252 73.8531403,7.58788048 74.5365,7.5603 C75.2121215,7.59023027 75.8464634,7.89384748 76.2935378,8.40127695 C76.7406122,8.90870642 76.9619094,9.57623961 76.9065,10.25025 C76.9585941,10.9199615 76.7350961,11.5819228 76.2877103,12.0829949 C75.8403245,12.584067 75.2078123,12.8808371 74.5365,12.90465 Z M99.78885,1.422 L95.16735,1.422 L95.16735,14.37405 L97.0989,14.37405 L97.0989,9.48 L99.78885,9.48 C100.889582,9.51829959 101.959668,9.11341212 102.759348,8.356055 C103.559028,7.59869789 104.021448,6.55218728 104.043,5.451 C104.021448,4.34981272 103.559028,3.30330211 102.759348,2.545945 C101.959668,1.78858788 100.889582,1.38370041 99.78885,1.422 Z M99.8481,7.6551 L97.0989,7.6551 L97.0989,3.2232 L99.8481,3.2232 C101.071935,3.2232 102.06405,4.21531461 102.06405,5.43915 C102.06405,6.66298539 101.071935,7.6551 99.8481,7.6551 Z M111.7929,5.8065 C110.352029,5.72103202 108.997681,6.49826973 108.34455,7.78545 L110.05095,8.49645 C110.516865,7.78958262 111.362058,7.43212128 112.193778,7.59017394 C113.025497,7.7482266 113.680652,8.39080077 113.8548,9.2193 L113.8548,9.34965 C113.234149,9.02138914 112.542412,8.85048927 111.8403,8.85195 C109.9917,8.85195 108.10755,9.87105 108.10755,11.76705 C108.143684,12.5746766 108.505726,13.3331432 109.110942,13.8691281 C109.716158,14.4051129 110.512828,14.6728113 111.3189,14.61105 C112.302399,14.662683 113.236673,14.177405 113.76,13.3431 L113.8311,13.3431 L113.8311,14.35035 L115.69155,14.35035 L115.69155,9.3852 C115.71525,7.11 114.00885,5.8065 111.7929,5.8065 Z M111.5559,12.9165 C110.92785,12.9165 110.0391,12.6084 110.0391,11.8263 C110.0391,10.81905 111.14115,10.43985 112.08915,10.43985 C112.705188,10.4222745 113.314742,10.5695493 113.8548,10.86645 C113.686982,12.0131119 112.714558,12.870249 111.5559,12.8928 L111.5559,12.9165 Z M122.51715,6.10275 L120.3012,11.71965 L120.2301,11.71965 L117.9312,6.10275 L115.85745,6.10275 L119.3058,13.9593 L117.315,18.2964 L119.3295,18.2964 L124.6383,6.07905 L122.51715,6.10275 Z M105.1095,14.39775 L107.04105,14.39775 L107.04105,1.422 L105.1095,1.422 L105.1095,14.39775 Z M43.845,24.16215 L43.845,24.09105 L43.07475,24.42285 L43.1577,24.54135 C43.4734467,25.0246188 43.7432254,25.5364048 43.9635,26.07 L43.9635,26.17665 L44.7219,25.82115 L44.7219,25.7145 C44.46761,25.1764808 44.1745374,24.657663 43.845,24.16215 Z" id="Shape" fill-rule="nonzero"></path>
                        <path d="M40.87065,26.4492 C40.9237636,24.9900424 41.8636906,23.7117416 43.24065,23.226 C43.9111477,23.090639 44.5952877,23.0349532 45.27885,23.0601 L45.39735,23.0601 L45.39735,21.9699 L45.27885,21.9699 C44.33085,21.9699 43.371,22.07655 42.423,22.14765 L38.61915,22.50315 L37.78965,22.57425 C37.5645,22.57425 37.2327,22.57425 36.8535,22.6335 L36.735,22.6335 L36.8535,23.8185 L36.98385,23.8185 C37.88445,23.6289 39.92265,23.4156 41.13135,23.28525 L41.46315,23.28525 C40.434484,24.1154069 39.833945,25.3643539 39.82785,26.6862 C39.82785,29.0562 41.98455,30.2412 44.11755,30.2412 L44.21235,30.2412 L44.6034,29.0562 L44.4375,29.0562 C43.33545,29.06805 40.87065,28.7244 40.87065,26.4492 Z" id="Path"></path>
                        <path d="M45.03,23.7 L45.03,23.6289 L44.28345,23.97255 L44.3664,24.09105 C44.7148298,24.5496053 45.0165308,25.0418543 45.267,25.56045 L45.267,25.65525 L46.03725,25.29975 L45.978,25.1931 C45.6929221,24.6764278 45.376324,24.1777857 45.03,23.7 Z M52.14,24.7191 L55.92015,24.7191 L55.92015,23.7 L52.14,23.7 L52.14,22.2306 C53.2377966,22.1113387 54.3238161,21.9012692 55.3869,21.60255 L55.5765,21.60255 L54.7944,20.77305 L54.7233,20.77305 C52.3645489,21.3041435 49.9592583,21.601828 47.5422,21.6618 L47.4,21.6618 L47.4,21.81585 C47.4880435,22.0332754 47.5516343,22.2598177 47.5896,22.4913 L47.5896,22.59795 L47.69625,22.59795 C48.54945,22.59795 49.80555,22.4913 51.0498,22.36095 L51.0498,23.7 L47.3763,23.7 L47.3763,24.68355 L51.0498,24.68355 L51.0498,26.17665 L46.6653,26.17665 L46.6653,27.255 L51.0498,27.255 L51.0498,29.49465 C51.0498,29.63685 51.0498,29.6724 50.82465,29.6724 L48.64425,29.6724 L48.76275,29.85015 C48.8973853,30.0958657 49.0084799,30.353764 49.09455,30.6204 L49.09455,30.70335 L49.77,30.70335 C50.3661531,30.7328025 50.9636116,30.6850058 51.5475,30.56115 C52.00965,30.4071 52.1874,30.11085 52.1874,29.51835 L52.1874,27.255 L56.56005,27.255 L56.56005,26.2359 L52.14,26.2359 L52.14,24.7191 Z M66.36,28.44 C65.51225,28.6299128 64.645417,28.7213676 63.7767,28.71255 C62.12955,28.71255 62.12955,28.0845 62.12955,27.88305 C62.1325064,27.5666888 62.176319,27.252035 62.2599,26.9469 L62.2599,26.8047 L61.25265,26.7099 L61.25265,26.81655 C61.1471249,27.2314113 61.087517,27.6566142 61.0749,28.0845 C61.0749,28.85475 61.53705,29.77905 63.753,29.77905 C64.6274027,29.7795747 65.5000264,29.7002453 66.36,29.54205 L66.4548,29.54205 L66.4548,28.44 L66.36,28.44 Z M59.52255,26.41365 L59.1078,27.4683 L59.1078,26.53215 C59.1611818,25.1769717 59.331667,23.828949 59.61735,22.50315 C59.6679763,22.2668709 59.7312677,22.0334842 59.80695,21.804 L59.80695,21.6618 L58.62195,21.567 L58.62195,21.69735 C58.62195,21.8751 58.62195,22.10025 58.5627,22.31355 L58.5627,22.4202 C58.5627,22.57425 58.5627,22.752 58.47975,22.9416 C58.2485122,24.1737519 58.1098746,25.4214911 58.065,26.67435 C58.0445653,27.8281112 58.1760439,28.9795452 58.45605,30.099 L58.45605,30.1938 L59.4396,30.1227 L59.4396,29.63685 C59.4245391,29.491088 59.4245391,29.344162 59.4396,29.1984 C59.6424417,28.3959705 59.887686,27.6048601 60.1743,26.8284 L60.1743,26.74545 L59.52255,26.2596 L59.52255,26.41365 Z M61.62,23.56965 C62.20065,23.6289 63.00645,23.66445 63.81225,23.66445 C64.61805,23.66445 65.412,23.66445 65.9808,23.56965 L66.08745,23.56965 L66.08745,22.45575 L65.94525,22.45575 C64.5158612,22.6157092 63.0730888,22.6157092 61.6437,22.45575 L61.5015,22.45575 L61.5015,23.56965 L61.62,23.56965 Z M73.26855,21.4959 L73.26855,21.33 L69.6306,21.33 L69.6306,22.3491 L72.285,22.3491 C72.285,22.71645 72.285,23.09565 72.4035,23.45115 L71.9769,23.45115 L71.9769,23.5578 C71.30145,26.6862 69.9387,28.677 67.72275,29.8383 L67.53315,29.9331 L67.7109,30.03975 C67.9610994,30.220325 68.1914828,30.4268756 68.3982,30.65595 L68.55225,30.65595 C70.6226139,29.4028565 72.1231328,27.3922461 72.7353,25.0509 C73.3405143,27.3955845 74.8428072,29.4085719 76.91835,30.65595 L77.01315,30.65595 L77.01315,30.573 C77.1909866,30.3347745 77.3980025,30.1197964 77.62935,29.9331 L77.7834,29.82645 L77.6175,29.7435 C76.551,29.13915 73.26855,27.1839 73.26855,21.4959 Z M87.69,27.9186 C87.3243192,28.392828 86.7805576,28.6968206 86.18505,28.75995 C85.8177,28.75995 85.75845,28.42815 85.75845,28.23855 C85.7868726,27.57946 85.8541394,26.9226198 85.9599,26.27145 C86.0623459,25.6121749 86.1256568,24.9474111 86.1495,24.28065 C86.1814374,23.8512819 86.01874,23.4302891 85.7063592,23.1339867 C85.3939783,22.8376842 84.9649832,22.6974394 84.5379,22.752 C83.3695417,22.9519161 82.2925749,23.5111103 81.4569,24.35175 C81.4510572,24.2609939 81.4510572,24.1699561 81.4569,24.0792 L81.9072,23.3682 L81.9072,23.2971 L81.528,22.83495 C81.5991,22.14765 81.68205,21.64995 81.72945,21.38925 L81.72945,21.24705 L80.42595,21.24705 L80.58,21.33 C80.6035905,21.5466096 80.6035905,21.7651404 80.58,21.98175 L80.58,22.989 C80.07045,23.0601 79.50165,23.11935 79.1817,23.14305 C78.9567118,23.1551203 78.7312382,23.1551203 78.50625,23.14305 L78.36405,23.14305 L78.48255,24.32805 L78.60105,24.32805 L79.3239,24.23325 L80.5089,24.0792 L80.5089,24.92055 C79.95195,25.7856 78.7551,27.3972 78.1389,28.09635 L78.1389,28.16745 L78.8262,29.11545 L78.921,28.97325 C79.33575,28.40445 79.90455,27.57495 80.4141,26.8284 L80.4141,30.27675 L81.5991,30.27675 L81.5991,30.1464 C81.5991,29.9568 81.5991,29.68425 81.53985,29.5065 L81.53985,25.7856 C82.2996182,24.8278022 83.34611,24.1384465 84.52605,23.8185 C85.0356,23.8185 85.2489,24.0555 85.2489,24.56505 C85.2272107,25.1764249 85.1678481,25.7858811 85.07115,26.38995 C84.9125392,27.0651799 84.7977498,27.7499581 84.7275,28.44 C84.7275,29.35245 85.2252,29.9094 86.01915,29.9094 C86.7928016,29.8923444 87.5254597,29.5581496 88.0455,28.9851 L87.8559,27.8001 L87.69,27.9186 Z M94.1364,26.9469 C94.1364,26.12925 94.02975,25.122 94.02975,24.44655 C94.8948,24.44655 96.1746,24.3636 97.08705,24.28065 L97.17,24.28065 L97.17,23.226 L97.03965,23.226 C96.1509,23.3445 94.9422,23.40375 94.0416,23.42745 L94.0416,22.515 C94.0515973,22.1701574 94.0792837,21.8260549 94.12455,21.48405 L94.12455,21.34185 L92.8329,21.34185 L92.8329,21.48405 C92.8824058,21.8255908 92.9101118,22.1699376 92.91585,22.515 L92.91585,24.4347 C92.91585,24.4347 92.91585,25.6908 92.9988,26.8047 C92.7423425,26.7873683 92.4850075,26.7873683 92.22855,26.8047 C90.1785,26.8047 89.4438,27.76455 89.4438,28.66515 C89.4438,29.85015 90.3918,30.4545 92.0982,30.4545 C93.38985,30.4545 94.1601,29.8146 94.1601,28.7244 L94.1601,28.19115 C95.1147951,28.5554938 95.9797379,29.1213443 96.696,29.85015 L96.80265,29.94495 L97.44255,28.94955 L97.37145,28.87845 C96.4460247,28.0074956 95.342127,27.3483919 94.1364,26.9469 Z M93.08175,28.3215 C93.08175,28.9851 92.74995,29.2932 92.0508,29.2932 C91.35165,29.2932 90.56955,29.18655 90.56955,28.49925 C90.56955,27.81195 91.1739,27.66975 92.15745,27.66975 C92.4636292,27.6663053 92.7693613,27.6940992 93.0699,27.7527 L93.0699,28.0608 C93.0794805,28.1473525 93.0834388,28.2344352 93.08175,28.3215 Z M103.7349,23.75925 C102.785416,23.7925115 101.842983,23.9356659 100.92645,24.18585 L100.5591,24.28065 C100.3458,24.28065 99.9429,24.39915 99.6111,24.4347 L99.4689,24.4347 L99.81255,25.67895 L100.0851,25.5723 C100.321546,25.4768013 100.562825,25.3937377 100.80795,25.32345 L101.0568,25.25235 C101.893758,24.9689462 102.76861,24.8131506 103.65195,24.7902 C104.6592,24.7902 105.33465,25.34715 105.33465,26.1885 C105.33465,28.30965 102.96465,29.04435 101.06865,29.2932 L100.87905,29.2932 L101.51895,30.336 L101.6019,30.336 C104.7066,29.87385 106.4841,28.3689 106.4841,26.2122 C106.489265,25.5068986 106.190578,24.8335033 105.664292,24.3639292 C105.138006,23.8943551 104.435055,23.6740475 103.7349,23.75925 Z M105.38205,22.8705 L105.465,22.8705 L105.6309,21.81585 L105.50055,21.81585 C104.008716,21.7726333 102.522728,21.6101653 101.0568,21.33 L100.92645,21.33 L100.7487,22.38465 L100.8672,22.38465 C102.0996,22.5861 104.28,22.7994 105.38205,22.8705 Z" id="Shape" fill-rule="nonzero"></path>
                    </g>
                </g>
            </g>
        </g>
    </g>
</svg>