<?xml version="1.0" encoding="UTF-8"?>
<svg width="154px" height="48px" viewBox="0 0 154 48" version="1.1" xmlns="http://www.w3.org/2000/svg" xmlns:xlink="http://www.w3.org/1999/xlink">
    <!-- Generator: Sketch 52.6 (67491) - http://www.bohemiancoding.com/sketch -->
    <title>btn_appstore</title>
    <desc>Created with Sketch.</desc>
    <g id="Page-1" stroke="none" stroke-width="1" fill="none" fill-rule="evenodd">
        <g id="Artboard" transform="translate(-111.000000, -541.000000)">
            <g id="Group-2" transform="translate(111.000000, 541.000000)">
                <rect id="Rectangle" fill="#000000" x="0" y="0" width="154" height="48" rx="8"></rect>
                <path d="M61.8807,19.3844035 L56.7852,19.3844035 L55.6002,22.9986535 L53.3961,22.9986535 L58.2309,9.60815353 L60.435,9.60815353 L65.2698,22.9986535 L63.1131,22.9986535 L61.8807,19.3844035 Z M57.3066,17.7135535 L61.3593,17.7135535 L59.35665,11.7885535 L57.3066,17.7135535 Z M75.75705,18.1164535 C75.75705,21.1500535 74.1336,23.1053035 71.68065,23.1053035 C70.4047227,23.1626073 69.2099091,22.4798567 68.6115,21.3515035 L68.6115,26.1863035 L66.56145,26.1863035 L66.56145,13.1513035 L68.493,13.1513035 L68.493,14.7747535 C69.138894,13.6745866 70.3344579,13.0154354 71.60955,13.0565035 C74.12175,13.1394535 75.75705,15.0947035 75.75705,18.1164535 Z M73.69515,18.1164535 C73.69515,16.1375035 72.67605,14.8458535 71.11185,14.8458535 C69.54765,14.8458535 68.55225,16.1730535 68.55225,18.1164535 C68.55225,20.0598535 69.5832,21.4107535 71.11185,21.4107535 C72.6405,21.4107535 73.69515,20.1665035 73.69515,18.1164535 Z M86.505,18.1164535 C86.505,21.1500535 84.88155,23.1053035 82.4286,23.1053035 C81.1659884,23.1458619 79.989887,22.4659283 79.395,21.3515035 L79.395,26.1863035 L77.3094,26.1863035 L77.3094,13.1513035 L79.24095,13.1513035 L79.24095,14.7747535 C79.8810448,13.6745599 81.0734892,13.0146193 82.34565,13.0565035 C84.8697,13.1394535 86.505,15.0947035 86.505,18.1164535 Z M84.4431,18.1164535 C84.4431,16.1375035 83.424,14.8458535 81.8598,14.8458535 C80.2956,14.8458535 79.3002,16.1730535 79.3002,18.1164535 C79.3002,20.0598535 80.33115,21.4107535 81.8598,21.4107535 C83.38845,21.4107535 84.4431,20.1665035 84.4431,18.1164535 Z M93.615,19.2659035 C93.76905,20.5931035 95.0607,21.4700035 96.82635,21.4700035 C98.592,21.4700035 99.7296,20.5931035 99.7296,19.3962535 C99.7296,18.1994035 98.9949,17.7372535 97.2648,17.3106535 L95.52285,16.8959035 C93.05805,16.3034035 91.96785,15.1539535 91.96785,13.2816535 C91.96785,10.9709035 93.98235,9.38300353 96.8382,9.38300353 C99.69405,9.38300353 101.5782,10.9709035 101.68485,13.2816535 L99.59925,13.2816535 C99.48075,11.9426035 98.41425,11.1368035 96.75525,11.1368035 C95.09625,11.1368035 94.02975,11.9544535 94.02975,13.1394535 C94.02975,14.0874535 94.74075,14.6444035 96.47085,15.0710035 L97.94025,15.4383535 C100.68945,16.0901035 101.8389,17.1921535 101.8389,19.1474035 C101.8389,21.6596035 99.83625,23.2238035 96.66045,23.2238035 C93.6861,23.2238035 91.68345,21.6951535 91.5531,19.2659035 L93.615,19.2659035 Z M106.16415,10.9235035 L106.16415,13.2935035 L108.0246,13.2935035 L108.0246,14.8814035 L106.16415,14.8814035 L106.16415,20.1665035 C106.16415,21.0078535 106.5315,21.3515035 107.34915,21.3515035 C107.570117,21.3658557 107.791783,21.3658557 108.01275,21.3515035 L108.01275,22.9275535 C107.645821,22.9982686 107.272452,23.0300447 106.89885,23.0223535 C104.9199,23.0223535 104.14965,22.2758035 104.14965,20.3916535 L104.14965,14.8221535 L102.72765,14.8221535 L102.72765,13.2342535 L104.14965,13.2342535 L104.14965,10.8642535 L106.16415,10.9235035 Z M109.0911,18.1164535 C109.0911,15.0473035 110.90415,13.1157535 113.72445,13.1157535 C116.54475,13.1157535 118.3578,15.0473035 118.3578,18.1164535 C118.3578,21.1856035 116.56845,23.1290035 113.76,23.1290035 C110.95155,23.1290035 109.0911,21.1974535 109.0911,18.1164535 Z M116.3196,18.1164535 C116.3196,16.0071535 115.3479,14.7629035 113.72445,14.7629035 C112.101,14.7629035 111.1293,16.0190035 111.1293,18.1164535 C111.1293,20.2139035 112.101,21.4700035 113.76,21.4700035 C115.419,21.4700035 116.3196,20.2376035 116.3196,18.1164535 Z M120.0168,13.2342535 L121.92465,13.2342535 L121.92465,14.8932535 C122.210624,13.8286071 123.192911,13.1017148 124.29465,13.1394535 C124.52564,13.1383658 124.756074,13.1622037 124.98195,13.2105535 L124.98195,15.0828535 C124.689588,14.9974758 124.385847,14.9575098 124.08135,14.9643535 C123.503616,14.9573301 122.950676,15.1987076 122.563038,15.6271498 C122.1754,16.0555919 121.990382,16.6298515 122.055,17.2040035 L122.055,22.9986535 L120.0168,22.9986535 L120.0168,13.2342535 Z M134.24865,20.1665035 C133.9761,21.9440035 132.25785,23.1645535 130.0419,23.1645535 C127.1979,23.1645535 125.4441,21.2567035 125.4441,18.1994035 C125.4441,15.1421035 127.20975,13.1513035 129.95895,13.1513035 C132.70815,13.1513035 134.3553,15.0117535 134.3553,17.9742535 L134.3553,18.6615535 L127.4586,18.6615535 L127.4586,18.7800535 C127.397083,19.5065617 127.649773,20.2246137 128.152719,20.7524807 C128.655666,21.2803477 129.360668,21.5674418 130.0893,21.5411035 C131.062355,21.6362251 131.980785,21.0754994 132.3408,20.1665035 L134.24865,20.1665035 Z M127.47045,17.2514035 L132.35265,17.2514035 C132.381787,16.6045738 132.145015,15.9739857 131.697356,15.5061826 C131.249698,15.0383796 130.630135,14.7740976 129.98265,14.7747535 C129.325782,14.7652571 128.692052,15.0171246 128.220908,15.4749341 C127.749764,15.9327436 127.479811,16.5589834 127.47045,17.2158535 L127.47045,17.2514035 Z M55.92015,37.3490035 L56.0031,36.3180535 C56.3861668,36.4411181 56.785759,36.5050529 57.1881,36.5076535 C57.55545,36.5076535 57.69765,36.5076535 57.88725,36.2232535 C58.3208407,35.3159724 58.5087983,34.3108078 58.43235,33.3081535 C58.43235,32.2298035 58.10055,31.9217035 57.24735,31.9217035 L56.60745,31.9217035 C56.1566434,33.7666874 55.4038923,35.5244412 54.37965,37.1238535 L53.3961,36.5906035 C54.3632967,35.2052034 55.070033,33.6552022 55.4817,32.0165035 C54.831283,32.0847166 54.1860456,32.1955549 53.55015,32.3483035 L53.325,31.3292035 C54.04785,31.1988535 54.9129,31.0803535 55.695,31.0092535 C55.8601192,30.2264597 55.9827486,29.4353026 56.06235,28.6392535 L57.24735,28.7696035 C57.1407,29.4924535 57.01035,30.2153035 56.84445,30.9263035 L57.3066,30.9263035 C58.8234,30.9263035 59.54625,31.6728535 59.54625,33.2963035 C59.6173125,34.5200851 59.3810374,35.7421976 58.85895,36.8513035 C58.5788052,37.3712664 58.0125639,37.6707659 57.4251,37.6097035 C56.9150154,37.5816542 56.409948,37.4941622 55.92015,37.3490035 Z M59.7477,30.9500035 L60.61275,30.3693535 C61.8128837,31.5307802 62.5356158,33.0988131 62.6391,34.7657035 L61.4541,34.9434535 C61.449084,33.4362473 60.833421,31.9954249 59.7477,30.9500035 Z M66.5733,37.5149035 L66.3363,36.4484035 L67.2606,36.4484035 C69.6306,36.4484035 70.49565,35.7848035 70.49565,34.8012535 C70.49565,34.0191535 69.9861,33.6162535 68.8485,33.6162535 C67.6082272,33.7299445 66.452844,34.2949859 65.6016,35.2041535 L64.68915,34.8012535 C64.5146872,33.2450647 64.8695149,31.6754739 65.6964,30.3456535 L66.75105,30.6893035 C66.0924991,31.5802998 65.7731837,32.6768964 65.85045,33.7821535 C66.8009221,33.1124048 67.9238274,32.7298766 69.0855,32.6801035 C70.6734,32.6801035 71.6688,33.4977535 71.6688,34.8249535 C71.6688,36.5076535 70.32975,37.5386035 67.1421,37.5386035 L66.5733,37.5149035 Z M65.47125,29.6465035 L65.7675,28.6037035 C67.343942,28.8443147 68.9005078,29.2007802 70.42455,29.6702035 L70.14015,30.7011535 C68.6186339,30.2102742 67.0560333,29.857301 65.47125,29.6465035 Z M75.1053,36.7565035 C76.3273067,36.3543922 77.4251285,35.644277 78.29295,34.6946035 C77.6056923,34.1245823 76.86338,33.6244147 76.077,33.2015035 L76.72875,32.3838535 C77.5215001,32.7874 78.2752125,33.2634288 78.98025,33.8058535 C79.5545523,32.9776021 79.9574498,32.0428799 80.16525,31.0566535 L77.1198,31.0566535 C76.4246329,32.1878314 75.5478402,33.1967434 74.52465,34.0428535 L73.6596,33.2015035 C75.1404477,32.0056831 76.2975778,30.4574104 77.025,28.6985035 L78.21,28.9710535 C78.07965,29.3028535 77.9493,29.6465035 77.79525,29.9664535 L80.58,29.9664535 L81.42135,30.3575035 C81.0281988,33.6168904 78.8881467,36.4021388 75.84,37.6215535 L75.1053,36.7565035 Z M80.106,28.4615035 L80.7696,28.1415535 C81.1067646,28.5923816 81.3891926,29.0816583 81.61095,29.5991035 L80.8644,29.9427535 C80.6762936,29.4184689 80.4213935,28.9206171 80.106,28.4615035 Z M81.58725,28.3430035 L82.2627,28.0230535 C82.6041263,28.4880522 82.8941686,28.9886733 83.12775,29.5161535 L82.3812,29.8361035 C82.1864368,29.2894933 81.9194182,28.7713973 81.58725,28.2956035 L81.58725,28.3430035 Z M86.77755,37.5741535 L86.1732,36.6143035 C88.7134908,36.2150315 90.5285916,33.9422991 90.35625,31.3766035 L85.32,31.3766035 L85.32,33.7466035 L84.135,33.7466035 L84.135,30.3693535 L87.10935,30.3693535 L87.10935,28.6274035 L88.29435,28.6274035 L88.29435,30.3693535 L90.52215,30.3693535 L91.61235,30.6774535 C91.51755,34.0547035 90.3918,36.6261535 86.77755,37.5741535 Z M93.9705,30.4523035 L94.6341,29.4806035 C95.6708455,29.9543761 96.6490921,30.5468914 97.5492,31.2462535 L96.7908,32.2772035 C95.9306573,31.5534325 94.9831691,30.9403519 93.9705,30.4523035 Z M94.19565,36.3062035 C97.1404774,35.8633558 99.6885312,34.021868 101.0331,31.3647535 L101.8152,32.2535035 C100.363917,34.9736292 97.7417488,36.8747008 94.7052,37.4082535 L94.19565,36.3062035 Z M111.54405,36.8750035 L104.07855,36.8750035 L104.07855,29.7650035 L111.54405,29.7650035 L111.54405,36.8750035 Z M105.2517,30.9500035 L105.2517,35.8322035 L110.35905,35.8322035 L110.35905,30.9026035 L105.2517,30.9500035 Z M122.23275,33.7110535 L113.84295,33.7110535 L113.84295,32.5260535 L122.23275,32.5260535 L122.23275,33.7110535 Z M125.0886,28.6629535 L126.2736,28.6629535 L126.2736,31.6965535 C127.831077,32.3541808 129.343287,33.1142444 130.8003,33.9717535 L130.1367,35.0145535 C128.903855,34.2256518 127.612375,33.5323727 126.2736,32.9408035 L126.2736,37.5149035 L125.0886,37.5149035 L125.0886,28.6629535 Z M127.87335,29.3028535 L128.5725,28.9710535 C128.915112,29.4734411 129.197498,30.0143506 129.41385,30.5826535 L128.6436,30.9263035 C128.457383,30.354421 128.198517,29.8088113 127.87335,29.3028535 Z M129.22425,28.7933035 L129.93525,28.4615035 C130.294941,28.961192 130.593327,29.5022652 130.824,30.0731035 L130.05375,30.4167535 C129.841984,29.8448973 129.563564,29.2999895 129.22425,28.7933035 Z M35.4552,24.0772829 C35.48534,21.9406555 36.6078769,19.9683896 38.42955,18.8514329 C37.2774027,17.2023989 35.4157031,16.1925147 33.40515,16.1259329 C31.284,15.9007829 29.23395,17.3938829 28.1556,17.3938829 C27.07725,17.3938829 25.39455,16.2088829 23.6052,16.2088829 C21.2535718,16.289689 19.1148644,17.592683 17.9646,19.6453829 C15.53535,23.8639829 17.3484,30.0733829 19.68285,33.4861829 C20.86785,35.1451829 22.21875,37.0411829 24.0081,36.9463829 C25.79745,36.8515829 26.3781,35.8324829 28.5111,35.8324829 C30.6441,35.8324829 31.2129,36.9463829 33.0378,36.9108329 C34.8627,36.8752829 36.0951,35.2281329 37.22085,33.5454329 C38.0487245,32.3437296 38.684392,31.0204219 39.105,29.6230829 C36.886844,28.6730746 35.4503249,26.4903118 35.4552,24.0772829 Z M31.995,13.8862829 C33.0253579,12.658344 33.5355825,11.0766478 33.417,9.47808294 C31.8564875,9.64301433 30.4145832,10.387223 29.37615,11.5636829 C28.3548407,12.7318614 27.8391118,14.2577369 27.9423,15.8059829 C29.5145823,15.8145154 31.0055861,15.1082504 31.995,13.8862829 Z" id="Shape" fill="#FFFFFF" fill-rule="nonzero"></path>
            </g>
        </g>
    </g>
</svg>